ply
format ascii 1.0
comment This example PLY format file shows all supported property types in special cases.
comment Extra scalar types are supported by specific implementations.
element extra_scalar_type_1 1
property half F16
property long I64
property ulong U64
element extra_scalar_type_2 1
property float16 F16
property int64 I64
property uint64 U64
comment Extra list types are supported by specific implementations.
element extra_list_type 1
property list uint64 int64 L_U64_I64
end_header
-1.3e4 -8000000003 8000000003
-1.4e4 -8000000004 8000000004
2 0 -1
