ply
format ascii 1.0
comment This example PLY format file shows all supported property types in common cases.
comment Primary scalar types were proposed by Greg Turk in 1994.
element primary_scalar_type 1
property char I8
property uchar U8
property short I16
property ushort U16
property int I32
property uint U32
property float F32
property double F64
comment Secondary scalar types are commonly supported.
element secondary_scalar_type 1
property int8 I8
property uint8 U8
property int16 I16
property uint16 U16
property int32 I32
property uint32 U32
property float32 F32
property float64 F64
comment Primary list types were proposed by Greg Turk in 1994.
element primary_list_type 1
property list uchar int L_U8_I32
comment Secondary scalar types are supported in some implementations.
element secondary_list_type 1
property list uint int L_U32_I32
end_header
-21 21 -401 401 -80001 80001 -1.1e20 -1.1e200
-22 22 -402 402 -80002 80002 -1.2e20 -1.2e200
3 2 1 0
2 1 0
